<?xml version='1.0' encoding='utf-8'?>
<svg xmlns="http://www.w3.org/2000/svg" version="1.1" id="Layer_1" width="857.52942" height="1000" viewBox="0 0 857.52942 999.99992" overflow="visible" enable-background="new 0 0 499.524 554.546" style="overflow:visible"><metadata id="metadata25"/><defs id="defs23"> </defs><path stroke-miterlimit="2.6131" d="m 46.505932,362.74311 c 0.298911,-0.49365 0.615827,-0.98005 0.932744,-1.45741 51.223533,-79.19762 132.024794,-125.55098 208.009274,-125.55098 77.37279,0 126.01057,42.5923 189.9666,42.5923 62.05633,0 99.8541,-42.65378 189.30755,-42.65378 67.58619,0 139.24367,36.95793 190.28353,100.86354 -14.11182,7.76083 -26.84252,16.5722 -38.22094,26.25696 l -740.278758,-0.0505 v 0 z" id="path5" style="clip-rule:evenodd;fill:#fdb827;fill-rule:evenodd;stroke:#fdb827;stroke-width:5.38605;stroke-miterlimit:2.6131;fill-opacity:1;stroke-opacity:1"/><path stroke-miterlimit="2.6131" d="M 566.86944,164.31601 C 599.33904,122.43977 624.03696,63.311423 615.08584,2.8576725 561.99863,6.51206 499.90628,40.452089 463.63908,84.633789 430.73012,124.77054 403.56169,184.29668 414.13879,242.11949 472.09681,243.9295 532.05176,209.1776 566.86944,164.31601 Z" id="path7" style="clip-rule:evenodd;fill:#61bb46;fill-rule:evenodd;stroke:#61bb46;stroke-width:5.38605;stroke-miterlimit:2.6131"/><path stroke-miterlimit="2.6131" d="M 43.863535,361.5761 C 21.804255,396.2808 6.5409399,446.02261 2.4904664,489.65207 l 715.6510936,-0.0184 c 7.73777,-47.73216 33.46652,-93.33474 74.24683,-128.00476 l -748.524855,-0.0527 h 0.04223 z" id="path9" style="clip-rule:evenodd;fill:#61bb46;fill-rule:evenodd;stroke:none;stroke-width:0.857529;stroke-miterlimit:2.6131;fill-opacity:1"/><path stroke-miterlimit="2.6131" d="M 8.9890678,616.58991 C 2.0348979,572.02849 0.90948221,529.06733 5.2778963,489.65385 L 715.3541,489.63559 c -6.94517,42.74238 -1.11641,87.22242 16.45089,126.98126 L 8.9890678,616.58967 v 0 z" id="path11" style="clip-rule:evenodd;fill:#f5821f;fill-rule:evenodd;stroke:#f5821f;stroke-width:5.38605;stroke-miterlimit:2.6131"/><path stroke-miterlimit="2.6131" d="M 43.691492,743.51694 C 26.923696,700.8722 15.442653,658.04122 8.9890678,616.58991 l 722.8159222,0.0272 c 22.37686,50.66231 63.78856,93.70304 122.09952,115.82102 -1.73224,3.86776 -3.40326,7.56734 -5.01126,11.13312 l -805.201758,-0.0542 v 0 z" id="path13" style="clip-rule:evenodd;fill:#009ddc;fill-rule:evenodd;stroke:#009ddc;stroke-width:5.38605;stroke-miterlimit:2.6131;fill-opacity:1;stroke-opacity:1"/><path stroke-miterlimit="2.6131" d="m 848.89146,743.56938 c -20.0198,44.19797 -31.62509,67.13688 -59.33012,109.48144 -3.72738,5.6868 -7.57901,11.50385 -11.5891,17.3751 l -667.19515,0.0617 c -2.1374,-3.19696 -4.25498,-6.39202 -6.34015,-9.5618 C 79.492321,822.77423 59.297859,783.21973 43.691492,743.51513 l 805.199968,0.0542 v 0 z" id="path15" style="clip-rule:evenodd;fill:#963d97;fill-rule:evenodd;stroke:#963d97;stroke-width:5.38605;stroke-miterlimit:2.6131"/><path stroke-miterlimit="2.6131" d="m 777.97224,870.42592 c -40.81388,60.03786 -95.60813,126.10605 -162.09591,126.7335 -64.87797,0.59127 -81.52152,-42.39702 -169.54165,-41.91244 -88.02013,0.49368 -106.39591,42.66287 -171.27388,42.05351 -69.36344,-0.64375 -123.22494,-65.5294 -164.28371,-126.81309 l 667.19515,-0.0617 v 0 z" id="path19" style="clip-rule:evenodd;fill:#e03a3e;fill-rule:evenodd;stroke:#e03a3e;stroke-width:5.38605;stroke-miterlimit:2.6131;stroke-opacity:1;fill-opacity:1"/> </svg>